<?xml version="1.0" encoding="utf-8"?>
<!-- Generator: Adobe Illustrator 27.2.0, SVG Export Plug-In . SVG Version: 6.00 Build 0)  -->
<svg version="1.1" id="圖層_1" xmlns="http://www.w3.org/2000/svg" xmlns:xlink="http://www.w3.org/1999/xlink" x="0px" y="0px"
	 viewBox="0 0 256 256" style="enable-background:new 0 0 256 256;" xml:space="preserve">
<style type="text/css">
	.st0{fill:none;}
	.st1{fill:#FEF9E4;stroke:#FDECA6;stroke-miterlimit:10;}
	.st2{fill:#FEF9E4;stroke:#FDECA6;stroke-width:16;stroke-linecap:round;stroke-linejoin:round;}
</style>
<rect class="st0" width="256" height="256"/>
<g>
	<rect x="71.8" y="60" class="st1" width="88.2" height="100"/>
	<path class="st2" d="M128,50c0-11,9-20,20-20s20,9,20,20v60"/>
	<path class="st2" d="M88,66V34c0-11,9-20,20-20s20,9,20,20v68"/>
	<path class="st2" d="M128,170c0-22.1,17.9-40,40-40v-20c0-11,9-20,20-20s20,9,20,20v40c0,44.2-35.8,80-80,80s-80-35.8-80-80V66
		c0-11,9-20,20-20s20,9,20,20v44"/>
</g>
</svg>
