<?xml version="1.0" ?><svg viewBox="0 0 256 256" xmlns="http://www.w3.org/2000/svg"><rect fill="none" height="256" width="256"/><path d="M168,112a20,20,0,0,1,40,0v40a80,80,0,0,1-160,0V68a20,20,0,0,1,40,0V36a20,20,0,0,1,40,0V52a20,20,0,0,1,40,0Z" opacity="0.2"/><path d="M128,52a20,20,0,0,1,40,0v60" fill="#cbe5cb" stroke="#7fbf7f" stroke-linecap="round" stroke-linejoin="round" stroke-width="16"/><path d="M88,68V36a20,20,0,0,1,40,0v68" fill="#cbe5cb" stroke="#7fbf7f" stroke-linecap="round" stroke-linejoin="round" stroke-width="16"/><path d="M128,172a40,40,0,0,1,40-40V112a20,20,0,0,1,40,0v40a80,80,0,0,1-160,0V68a20,20,0,0,1,40,0v44" fill="#cbe5cb" stroke="#7fbf7f" stroke-linecap="round" stroke-linejoin="round" stroke-width="16"/></svg>